<?xml version="1.0" encoding="utf-8"?>
<!-- Generator: Adobe Illustrator 22.0.0, SVG Export Plug-In . SVG Version: 6.00 Build 0)  -->
<svg version="1.1" id="Layer_1" xmlns="http://www.w3.org/2000/svg" xmlns:xlink="http://www.w3.org/1999/xlink" x="0px" y="0px"
	 viewBox="0 0 35 35" style="enable-background:new 0 0 35 35;" xml:space="preserve">
<style type="text/css">
	.st0{fill:#EBEBEB;}
</style>
<title>Asset 27</title>
<g id="layer_copy">
	<path class="st0" d="M28.3,23.5c-1-2-2.4-3.7-4.2-5.2c1.5-1.6,2.4-3.8,2.4-6.1c0-5-4.1-9-9-9s-9,4-9,9c0,2.4,0.9,4.5,2.4,6.1
		c-1.8,1.4-3.2,3.2-4.2,5.2c-1.2,2.3-1.8,4.9-1.8,7.6c0,0.3,0.3,0.6,0.6,0.6s0.6-0.3,0.6-0.6c0-4.8,2-9,5.6-11.9
		c1.6,1.3,3.6,2.1,5.8,2.1c2.2,0,4.2-0.8,5.8-2.1c3.6,2.9,5.6,7.1,5.6,11.9c0,0.3,0.3,0.6,0.6,0.6c0.3,0,0.6-0.3,0.6-0.6
		C30.1,28.4,29.5,25.9,28.3,23.5z M9.7,12.3c0-4.3,3.5-7.8,7.8-7.8s7.8,3.5,7.8,7.8s-3.5,7.8-7.8,7.8S9.7,16.6,9.7,12.3z"/>
</g>
</svg>
