<?xml version="1.0" encoding="utf-8"?>
<!-- Generator: Adobe Illustrator 22.0.0, SVG Export Plug-In . SVG Version: 6.00 Build 0)  -->
<svg version="1.1" id="Layer_1" xmlns="http://www.w3.org/2000/svg" xmlns:xlink="http://www.w3.org/1999/xlink" x="0px" y="0px"
	 viewBox="0 0 35 35" style="enable-background:new 0 0 35 35;" xml:space="preserve">
<style type="text/css">
	.st0{fill:none;stroke:#EBEBEB;stroke-linecap:round;stroke-linejoin:round;stroke-miterlimit:10;}
</style>
<g>
	<g>
		<line class="st0" x1="19" y1="12.5" x2="19" y2="25.5"/>
	</g>
	<path class="st0" d="M16.1,18.7c0.7,0.7,0.7,1.9,0,2.7c-0.7,0.7-1.9,0.7-2.7,0c-0.7-0.7-0.7-1.9,0-2.7C14.1,18,15.3,18,16.1,18.7z"
		/>
	<path class="st0" d="M24.8,15.8c0.7,0.7,0.7,1.9,0,2.7c-0.7,0.7-1.9,0.7-2.7,0c-0.7-0.7-0.7-1.9,0-2.7
		C22.9,15.1,24.1,15.1,24.8,15.8z"/>
	<polygon class="st0" points="3.6,7.4 3.9,16.4 9.3,21.7 14.2,26.6 19.1,31.5 22.2,28.4 25.3,25.3 28.4,22.2 31.5,19.1 26.6,14.2 
		21.7,9.3 17.3,4.8 7.7,3.7 6.2,3.5 4.8,4.8 3.5,6.2 	"/>
	<circle class="st0" cx="8.8" cy="8.8" r="1.8"/>
</g>
</svg>
