<?xml version="1.0" encoding="utf-8"?>
<!-- Generator: Adobe Illustrator 22.0.0, SVG Export Plug-In . SVG Version: 6.00 Build 0)  -->
<svg version="1.1" id="treasure-closed" xmlns="http://www.w3.org/2000/svg" xmlns:xlink="http://www.w3.org/1999/xlink" x="0px"
	 y="0px" viewBox="0 0 512 512" style="enable-background:new 0 0 512 512;" xml:space="preserve">
<style type="text/css">
	.st0{fill:#EBEBEB;}
</style>
<g>
	<path class="st0" d="M278.3,114.3c1.5,1.5,3.5,2.3,5.4,2.3s4-0.8,5.4-2.3l5.4-5.4l5.4,5.4c1.5,1.5,3.5,2.3,5.4,2.3
		c1.9,0,4-0.8,5.4-2.3c3-3,3-7.9,0-11l-5.4-5.4l5.4-5.4c3-3,3-7.9,0-11c-3-3-7.9-3-11,0l-5.4,5.4l-5.4-5.4c-3-3-7.9-3-11,0
		c-3,3-3,7.9,0,11l5.4,5.4l-5.4,5.4C275.2,106.4,275.2,111.4,278.3,114.3z"/>
	<path class="st0" d="M159.7,90.2c14.9,0,27-12.1,27-27s-12.1-27-27-27c-14.9,0-27,12.1-27,27S144.7,90.2,159.7,90.2z M159.7,51.7
		c6.3,0,11.5,5.2,11.5,11.5s-5.2,11.5-11.5,11.5c-6.3,0-11.5-5.2-11.5-11.5S153.2,51.7,159.7,51.7z"/>
	<path class="st0" d="M385.3,84.8c3.5-3.5,3.5-9.3-0.1-12.8c-3.6-3.5-9.3-3.5-12.8,0.1c-3.5,3.5-3.5,9.3,0.1,12.8
		C376.2,88.3,381.8,88.3,385.3,84.8z"/>
	<path class="st0" d="M256,290.7c4.3,0,7.7-3.5,7.7-7.7v-23.2c0-4.3-3.5-7.7-7.7-7.7c-4.2,0-7.7,3.5-7.7,7.7v23.2
		C248.3,287.3,251.7,290.7,256,290.7z"/>
	<path class="st0" d="M479.6,460.4h-36.1c2.5-4.1,4.3-8.6,4.9-13.6l20.2-173.6c0.9-7.5-0.9-14.8-4.9-21.1h0.5c4.3,0,7.7-3.5,7.7-7.7
		c0-46.8-38.1-84.8-84.8-84.8H124.9c-46.8,0-84.8,38.1-84.8,84.8c0,4.3,3.5,7.7,7.7,7.7h0.5c-4,6.2-5.8,13.7-4.9,21.1l20.2,173.6
		c0.6,5,2.4,9.5,4.9,13.6h-36c-4.3,0-7.7,3.5-7.7,7.7c0,4.2,3.5,7.7,7.7,7.7h447.3c4.3,0,7.7-3.5,7.7-7.7
		C487.3,463.9,483.8,460.4,479.6,460.4z M310,236.7c0-4.3-3.5-7.7-7.7-7.7h-15.5v-15.5h162c0.1,0,0.2-0.1,0.3-0.1
		c3.6,7.1,6,14.9,6.9,23.2H310V236.7z M416.5,344.7h-60.2c-4.3,0-7.7,3.5-7.7,7.7c0,4.2,3.5,7.7,7.7,7.7h58.2l-4.1,30.8
		c-0.1,0-0.1,0-0.2,0H148c-4.3,0-7.7,3.5-7.7,7.7c0,4.2,3.5,7.7,7.7,7.7h260.3l-3,23.2H106.7l-9-69.4h220.1c4.3,0,7.7-3.5,7.7-7.7
		s-3.5-7.7-7.7-7.7H95.5l-4.1-30.8h41.1c4.3,0,7.7-3.5,7.7-7.7c0-4.3-3.5-7.7-7.7-7.7H89.4l-2-15.5h114.5v15.5h-15.5
		c-4.3,0-7.7,3.5-7.7,7.7c0,4.3,3.5,7.7,7.7,7.7h233.9L416.5,344.7z M56,236.7c0.9-8.2,3.3-16,6.9-23.2c0.1,0,0.2,0.1,0.3,0.1h162
		v15.5h-15.5c-4.3,0-7.7,3.5-7.7,7.7H56V236.7z M294.5,298.4h-77.1v-54h77.1V298.4z M271.5,229.1h-30.8v-54h30.8V229.1z
		 M422.5,298.4H309.9v-15.5h114.5L422.5,298.4z M438.8,198.2H286.8v-23.2H387C407.6,175.1,426,184.1,438.8,198.2z M124.9,175.1
		h100.2v23.2H73.2C86,184.1,104.4,175.1,124.9,175.1z M96.1,460.4c-8.8,0-16.2-6.6-17.2-15.4L58.7,271.5c-0.6-5,0.9-9.8,4.3-13.6
		c3.3-3.7,7.9-5.8,12.9-5.8h126.1v15.5H78.7c-2.3,0-4.3,0.9-5.8,2.6c-1.5,1.7-2.1,3.8-1.8,6.1l21.1,161.9c0.5,3.8,3.7,6.7,7.7,6.7
		h312.3c3.8,0,7.1-2.8,7.7-6.7L441,276.4c0.3-2.3-0.3-4.4-1.8-6.1c-1.5-1.7-3.6-2.6-5.8-2.6H310v-15.5H436c5,0,9.6,2,12.9,5.8
		c3.4,3.7,4.9,8.6,4.3,13.6L433,445.1c-1,8.7-8.4,15.4-17.2,15.4H96.1V460.4z"/>
</g>
</svg>
