<svg xmlns="http://www.w3.org/2000/svg" viewBox="0 0 29 25"><defs><style>.cls-1{fill:none;stroke:#ebebeb;stroke-linecap:round;stroke-linejoin:round;}</style></defs><title>Asset 13</title><g id="Layer_2" data-name="Layer 2"><g id="Layer_1-2" data-name="Layer 1"><path class="cls-1" d="M21.27,5.81,20,1.87A2,2,0,0,0,18.06.5H10.94A2,2,0,0,0,9,1.87L7.73,5.81l-6.32.6a1,1,0,0,0-.91,1V23.5a1,1,0,0,0,1,1h26a1,1,0,0,0,1-1V7.41a1,1,0,0,0-.91-1Z"/><circle class="cls-1" cx="14.5" cy="14.5" r="6"/><path class="cls-1" d="M14,11a3,3,0,0,0-3,3"/></g></g></svg>