<svg xmlns="http://www.w3.org/2000/svg" viewBox="0 0 31 29"><defs><style>.cls-1,.cls-2{fill:none;stroke:#ebebeb;}.cls-1{stroke-miterlimit:10;}.cls-2{stroke-linecap:round;stroke-linejoin:round;}</style></defs><title>Asset 13</title><g id="Layer_2" data-name="Layer 2"><g id="Layer_1-2" data-name="Layer 1"><path class="cls-1" d="M6.84,3.51a14,14,0,0,1,17.32,0"/><path class="cls-1" d="M1.92,11.14A14.31,14.31,0,0,0,1.5,14.5a14,14,0,0,0,28,0,14.31,14.31,0,0,0-.42-3.36"/><path class="cls-2" d="M6.84,3.51a10.13,10.13,0,0,1,5.51,1.88,6.83,6.83,0,0,1,.15,1.44c0,3.69-2.69,6.67-6,6.67a5.77,5.77,0,0,1-4.58-2.36A7.12,7.12,0,0,1,.5,6.83,6.83,6.83,0,0,1,.65,5.39,10.13,10.13,0,0,1,6.5,3.5Z"/><path class="cls-2" d="M29.08,11.14A5.77,5.77,0,0,1,24.5,13.5c-3.31,0-6-3-6-6.67a6.83,6.83,0,0,1,.15-1.44,10.13,10.13,0,0,1,5.51-1.88h.34a10.13,10.13,0,0,1,5.85,1.89,6.83,6.83,0,0,1,.15,1.44A7.12,7.12,0,0,1,29.08,11.14Z"/><line class="cls-2" x1="12.5" y1="8" x2="18.5" y2="8"/><path class="cls-2" d="M24,17c0,3.29-3.81,7-8.5,7S7,20.29,7,17Z"/><line class="cls-2" x1="10.62" y1="4.56" x2="4.89" y2="13.11"/><line class="cls-2" x1="28.65" y1="4.53" x2="22.89" y2="13.11"/></g></g></svg>