<?xml version="1.0" encoding="utf-8"?>
<!-- Generator: Adobe Illustrator 22.0.0, SVG Export Plug-In . SVG Version: 6.00 Build 0)  -->
<svg version="1.1" id="Layer_1" xmlns="http://www.w3.org/2000/svg" xmlns:xlink="http://www.w3.org/1999/xlink" x="0px" y="0px"
	 viewBox="0 0 512 512" style="enable-background:new 0 0 512 512;" xml:space="preserve">
<style type="text/css">
	.st0{fill:#EBEBEB;}
</style>
<g>
	<g>
		<path class="st0" d="M427.8,34.6c-2.6-0.9-5.2-1.4-7.9-1.4c-13.1,0-23.8,10.8-23.8,23.9v45.6H212.8c-6.4,0-12.4,2.5-16.9,7.1
			l-17.4,17.4c-4.3,4.3-11.1,4.3-15.4,0l-17.4-17.4c-4.5-4.5-10.6-7.1-16.9-7.1H116V57.2c0-7.8-3.7-15.1-10.1-19.6
			S91.6,32,84.3,34.6c-30.4,10.7-51,39.5-51,71.9v296.1c0,42,34.2,76.2,76.2,76.2h178c6.4,0,12.4-2.5,16.9-7.1l17.4-17.4
			c4.3-4.3,11.1-4.3,15.4,0l17.4,17.4c4.5,4.5,10.6,7.1,16.9,7.1h31.2c15.8,0,31.1-4.8,43.9-14c3-2,3.6-6.2,1.6-9.1
			c-2-3-6.2-3.6-9.1-1.6c-10.7,7.6-23.3,11.5-36.4,11.5h-31.2c-2.9,0-5.7-1.2-7.7-3.2L346.4,445c-9.3-9.3-24.5-9.3-33.9,0
			l-17.4,17.4c-2,2-4.8,3.2-7.7,3.2h-178c-34.8,0-63-28.3-63-63c0-29.8,21.2-55.9,50.3-61.7c11.1-2.2,19.2-12.1,19.2-23.3V273
			c0-3.6-2.9-6.5-6.5-6.5c-3.6,0-6.5,2.9-6.5,6.5v44.3c0,5.1-3.6,9.5-8.8,10.6c-20,4.1-36.9,15.9-47.8,32V106.4
			c0-26.8,17-50.7,42.2-59.5c3.3-1.2,6.8-0.6,9.7,1.4c2.9,2,4.6,5.3,4.6,8.9v189.7c0,3.6,2.9,6.5,6.5,6.5c3.6,0,6.5-2.9,6.5-6.5
			v-131h12.8c2.9,0,5.7,1.2,7.7,3.2l17.4,17.4c4.7,4.7,10.8,6.9,16.9,6.9c6.1,0,12.3-2.4,16.9-6.9l17.4-17.4c2-2,4.8-3.2,7.7-3.2
			h183.3v84.6c0,6.4,2.5,12.4,7.1,16.9l17.4,17.4c2,2,3.2,4.8,3.2,7.7c0,2.9-1.2,5.7-3.2,7.7l-17.4,17.4c-4.5,4.5-7.1,10.6-7.1,16.9
			v32.9c0,11.2,8.1,21,19.2,23.3c29.2,6,50.3,31.9,50.3,61.7c0,12.7-3.7,25-10.9,35.5c-2,3-1.3,7.1,1.7,9.1c1.2,0.7,2.4,1.2,3.6,1.2
			c2.1,0,4.2-1,5.4-2.9c8.7-12.6,13.1-27.5,13.1-42.8v-296C478.8,74.1,458.3,45.3,427.8,34.6L427.8,34.6z M418,328
			c-5.2-1.1-8.8-5.4-8.8-10.6v-32.9c0-2.9,1.2-5.7,3.2-7.7l17.4-17.4c9.3-9.3,9.3-24.5,0-33.9l-17.4-17.4c-2-2-3.2-4.8-3.2-7.7V57.2
			c0-6,4.8-10.9,10.8-10.9c1.2,0,2.4,0.2,3.5,0.6c25.2,8.9,42.2,32.8,42.2,59.5v253.6C454.9,344,438,332.1,418,328z"/>
		<path class="st0" d="M213.9,192.5c0-17.9-14.6-32.6-32.6-32.6s-32.6,14.6-32.6,32.6s14.6,32.6,32.6,32.6S213.9,210.4,213.9,192.5z
			 M181.3,212c-10.8,0-19.6-8.8-19.6-19.6c0-10.8,8.8-19.6,19.6-19.6s19.6,8.8,19.6,19.6C200.8,203.3,192.1,212,181.3,212z"/>
		<path class="st0" d="M361.6,311.3c-2.6-2.6-6.7-2.6-9.2,0l-12.8,12.8l-12.8-12.8c-2.6-2.6-6.7-2.6-9.2,0c-2.6,2.6-2.6,6.7,0,9.2
			l12.8,12.8l-12.8,12.8c-2.6,2.6-2.6,6.7,0,9.2c1.3,1.3,3,1.9,4.6,1.9c1.6,0,3.3-0.6,4.6-1.9l12.8-12.8l12.8,12.8
			c1.3,1.3,3,1.9,4.6,1.9c1.6,0,3.3-0.6,4.6-1.9c2.6-2.6,2.6-6.7,0-9.2l-12.8-12.8l12.8-12.8C364.2,317.9,364.2,313.9,361.6,311.3
			L361.6,311.3z"/>
		<path class="st0" d="M242.2,199h6.5c3.6,0,6.5-2.9,6.5-6.5c0-3.6-2.9-6.5-6.5-6.5h-6.5c-3.6,0-6.5,2.9-6.5,6.5
			C235.6,196.1,238.5,199,242.2,199z"/>
		<path class="st0" d="M342.7,234.4c0.1,0,0.2,0,0.3,0c3.4,0,6.3-2.7,6.5-6.2c0-0.6,0-1.4,0-2c0-4.5-0.7-8.9-2.1-13
			c-1.2-3.4-4.9-5.2-8.3-4.1c-3.4,1.2-5.2,4.9-4.1,8.3c1,2.8,1.5,5.8,1.5,8.8c0,0.4,0,1,0,1.4C336.3,231.2,339.1,234.3,342.7,234.4
			L342.7,234.4z"/>
		<path class="st0" d="M293.7,192.5c0-3.6-2.9-6.5-6.5-6.5h-12.8c-3.6,0-6.5,2.9-6.5,6.5c0,3.6,2.9,6.5,6.5,6.5h12.8
			C290.7,199,293.7,196.1,293.7,192.5z"/>
		<path class="st0" d="M303.1,259.9c0-3.6-2.9-6.5-6.5-6.5h-12.8c-3.6,0-6.5,2.9-6.5,6.5c0,3.6,2.9,6.5,6.5,6.5h12.8
			C300.2,266.4,303.1,263.5,303.1,259.9z"/>
		<path class="st0" d="M325,202.9c2.4,0,4.6-1.3,5.8-3.5c1.7-3.2,0.4-7.2-2.8-8.8c-4.6-2.4-9.5-3.8-14.5-4.4
			c-3.6-0.3-6.8,2.2-7.2,5.9c-0.3,3.6,2.2,6.8,5.9,7.2c3.4,0.3,6.7,1.3,9.8,3C322.9,202.6,323.9,202.9,325,202.9L325,202.9z"/>
		<path class="st0" d="M321.9,264.1c0.9,0,1.6-0.1,2.5-0.4c4.8-1.9,9.1-4.7,12.8-8.2c2.6-2.5,2.7-6.6,0.2-9.2
			c-2.5-2.6-6.6-2.7-9.2-0.2c-2.6,2.4-5.4,4.3-8.7,5.6c-3.3,1.4-5,5.1-3.6,8.4C316.8,262.5,319.3,264.1,321.9,264.1L321.9,264.1z"/>
		<path class="st0" d="M215.1,420.1c0.5,0,1.2-0.1,1.7-0.2c4.8-1.4,9.3-3.4,13.5-6.2c3-2,3.8-6.1,1.8-9.1c-2-3-6.1-3.8-9.1-1.8
			c-3,2-6.3,3.5-9.7,4.5c-3.4,1-5.4,4.6-4.5,8C209.7,418.3,212.4,420.1,215.1,420.1L215.1,420.1z"/>
		<path class="st0" d="M206.8,266.4h12.8c3.6,0,6.5-2.9,6.5-6.5c0-3.6-2.9-6.5-6.5-6.5h-12.8c-3.6,0-6.5,2.9-6.5,6.5
			C200.3,263.5,203.2,266.4,206.8,266.4z"/>
		<path class="st0" d="M174.9,411.3c3.8,3.1,8.2,5.6,12.8,7.4c0.7,0.3,1.5,0.4,2.4,0.4c2.7,0,5.1-1.6,6.1-4.3
			c1.3-3.4-0.4-7.2-3.8-8.4c-3.3-1.3-6.5-3.1-9.3-5.3c-2.8-2.2-6.9-1.8-9.2,1C171.5,404.9,172.1,409,174.9,411.3z"/>
		<path class="st0" d="M240.1,394.6c0.7,0.2,1.5,0.4,2.2,0.4c2.7,0,5.1-1.6,6.1-4.3c1.7-4.7,2.7-9.6,2.8-14.5
			c0.1-3.6-2.7-6.6-6.3-6.7c-0.1,0-0.1,0-0.2,0c-3.5,0-6.4,2.8-6.5,6.3c-0.1,3.6-0.7,7.2-2,10.5C235,389.6,236.7,393.3,240.1,394.6
			L240.1,394.6z"/>
		<path class="st0" d="M163.9,314.8c3.6,0,6.5-2.9,6.5-6.5v-12.8c0-3.6-2.9-6.5-6.5-6.5c-3.6,0-6.5,2.9-6.5,6.5v12.8
			C157.3,311.9,160.2,314.8,163.9,314.8z"/>
		<path class="st0" d="M157.3,346.8c0,3.6,2.9,6.5,6.5,6.5c3.6,0,6.5-2.9,6.5-6.5v-12.8c0-3.6-2.9-6.5-6.5-6.5
			c-3.6,0-6.5,2.9-6.5,6.5V346.8z"/>
		<path class="st0" d="M176.8,276c2.2-2.7,4.9-4.8,8-6.4c3.2-1.7,4.4-5.7,2.7-8.9c-1.7-3.2-5.7-4.4-8.9-2.7
			c-4.5,2.4-8.5,5.6-11.9,9.5c-2.4,2.8-2,6.8,0.7,9.2c1.2,1.1,2.8,1.6,4.3,1.6C173.7,278.3,175.5,277.5,176.8,276L176.8,276z"/>
		<path class="st0" d="M157.3,374.6c0,4.1,0.5,8.1,1.6,12.1c0.7,2.9,3.4,4.8,6.3,4.8c0.5,0,1.1-0.1,1.7-0.2c3.5-1,5.6-4.5,4.6-8
			c-0.7-2.9-1.2-5.8-1.2-8.8v-2.1c0-3.6-2.9-6.5-6.5-6.5c-3.6,0-6.5,2.9-6.5,6.5L157.3,374.6L157.3,374.6z"/>
		<path class="st0" d="M258.1,253.4h-12.8c-3.6,0-6.5,2.9-6.5,6.5c0,3.6,2.9,6.5,6.5,6.5h12.8c3.6,0,6.5-2.9,6.5-6.5
			C264.6,256.3,261.7,253.4,258.1,253.4L258.1,253.4z"/>
		<path class="st0" d="M254.6,354.1c1.6-3.1,3.8-5.8,6.5-8c2.8-2.4,3.1-6.4,0.9-9.2c-2.4-2.8-6.4-3.1-9.2-0.9
			c-4,3.3-7.2,7.3-9.6,11.8c-1.7,3.2-0.5,7.2,2.7,8.9c1,0.5,2,0.7,3.1,0.7C251.1,357.5,253.4,356.3,254.6,354.1z"/>
		<path class="st0" d="M280.8,339.8h6.5c3.6,0,6.5-2.9,6.5-6.5c0-3.6-2.9-6.5-6.5-6.5h-6.5c-3.6,0-6.5,2.9-6.5,6.5
			C274.3,336.9,277.2,339.8,280.8,339.8z"/>
	</g>
</g>
</svg>
