<?xml version="1.0" encoding="utf-8"?>
<!-- Generator: Adobe Illustrator 22.0.1, SVG Export Plug-In . SVG Version: 6.00 Build 0)  -->
<svg version="1.1" id="Layer_1" xmlns="http://www.w3.org/2000/svg" xmlns:xlink="http://www.w3.org/1999/xlink" x="0px" y="0px"
	 viewBox="0 0 35 35" style="enable-background:new 0 0 35 35;" xml:space="preserve">
<style type="text/css">
	.st0{fill:#EBEBEB;}
</style>
<title>Artboard 1</title>
<path class="st0" d="M7.3,4.5C3.2,4.5,0,7.8,0,11.8v11.3c0,4.1,3.3,7.3,7.3,7.3h11.3c4.1,0,7.3-3.3,7.3-7.3V11.8
	c0-4.1-3.3-7.3-7.3-7.3H7.3z M7.3,5.6h11.3c3.4,0,6.2,2.8,6.2,6.2v11.3c0,3.4-2.8,6.2-6.2,6.2H7.3c-3.4,0-6.2-2.8-6.2-6.2V11.8
	C1.1,8.4,3.9,5.6,7.3,5.6z M20.3,9c-0.6,0-1.1,0.5-1.1,1.1s0.5,1.1,1.1,1.1s1.1-0.5,1.1-1.1S21,9,20.3,9z M13,10.7
	c-3.7,0-6.8,3-6.8,6.8s3,6.8,6.8,6.8s6.8-3,6.8-6.8S16.7,10.7,13,10.7z M13,11.8c3.1,0,5.7,2.5,5.7,5.7s-2.5,5.7-5.7,5.7
	s-5.7-2.5-5.7-5.7S9.9,11.8,13,11.8z"/>
</svg>
