<svg xmlns="http://www.w3.org/2000/svg" viewBox="0 0 31 22"><defs><style>.cls-1{fill:none;stroke:#ebebeb;stroke-linecap:round;stroke-linejoin:round;}</style></defs><title>Asset 11</title><g id="Layer_2" data-name="Layer 2"><g id="Layer_1-2" data-name="Layer 1"><path class="cls-1" d="M11.79,13.56a16,16,0,0,1-.29-3.06,17.15,17.15,0,0,1,.22-2.62A12.15,12.15,0,0,1,15.5.5a12.15,12.15,0,0,1,3.78,7.38,17.15,17.15,0,0,1,.22,2.62,16,16,0,0,1-.29,3.06"/><path class="cls-1" d="M24.1,13.91A12.06,12.06,0,0,0,27.17,5.5a11.85,11.85,0,0,0-7.89,2.38"/><path class="cls-1" d="M6.9,13.91A12.06,12.06,0,0,1,3.83,5.5a11.85,11.85,0,0,1,7.89,2.38"/><path class="cls-1" d="M15.5,14.31c.43-.15.87-.27,1.32-.38a15.28,15.28,0,0,1,2.39-.37c.43,0,.85-.06,1.29-.06a16.07,16.07,0,0,1,3.6.41,11.75,11.75,0,0,1,6.4,3.59c-2,2.39-5.72,4-10,4a15.69,15.69,0,0,1-5-.81,15.69,15.69,0,0,1-5,.81c-4.28,0-8-1.61-10-4a11.75,11.75,0,0,1,6.4-3.59,16.07,16.07,0,0,1,3.6-.41c.44,0,.86,0,1.29.06a15.28,15.28,0,0,1,2.39.37C14.63,14,15.07,14.16,15.5,14.31Z"/></g></g></svg>