<svg xmlns="http://www.w3.org/2000/svg" viewBox="0 0 31 20"><defs><style>.cls-1{fill:none;stroke:#ebebeb;stroke-linecap:round;stroke-linejoin:round;}</style></defs><title>khAsset 38</title><g id="Layer_2" data-name="Layer 2"><g id="Layer_1-2" data-name="Layer 1"><path class="cls-1" d="M6.6,17.74a32.81,32.81,0,0,1,17.8,0,6,6,0,0,1-.93-1.34,11.24,11.24,0,0,1-.78-5.63,15.87,15.87,0,0,0-.33-5.72,6.67,6.67,0,0,0-3.21-3.68C15.5-.63,10,.92,8.64,5.05a15.87,15.87,0,0,0-.33,5.72,11.24,11.24,0,0,1-.78,5.63A6,6,0,0,1,6.6,17.74Z"/><path class="cls-1" d="M17.5,16.57v.93a2,2,0,0,1-2,2h0a2,2,0,0,1-2-2v-.94"/><path class="cls-1" d="M2.26,5.26a6,6,0,0,0,0,8.48"/><path class="cls-1" d="M4.67,12.33a4,4,0,0,1,0-5.66"/><path class="cls-1" d="M28.74,5.26a6,6,0,0,1,0,8.48"/><path class="cls-1" d="M26.33,12.33a4,4,0,0,0,0-5.66"/></g></g></svg>