<?xml version="1.0" encoding="utf-8"?>
<!-- Generator: Adobe Illustrator 22.0.0, SVG Export Plug-In . SVG Version: 6.00 Build 0)  -->
<svg version="1.1" id="Layer_1" xmlns="http://www.w3.org/2000/svg" xmlns:xlink="http://www.w3.org/1999/xlink" x="0px" y="0px"
	 viewBox="0 0 35 35" style="enable-background:new 0 0 35 35;" xml:space="preserve">
<style type="text/css">
	.st0{fill:none;stroke:#EBEBEB;stroke-linejoin:round;}
</style>
<title>Asset 16</title>
<g id="Layer_2_1_">
	<g id="Layer_1-2">
		<path class="st0" d="M26.2,9.1c-0.5,0-0.9,0.1-1.4,0.2c-1.4-3.2-4.5-5.3-8-5.3c-4.4,0.1-8.1,3.4-8.6,7.8c-0.2,0-0.5-0.1-0.7-0.1
			c-2.8,0-5,2.3-5,5.2c0,2.8,2.2,5.1,5,5.1c0,0,0,0,0,0h18.8c3.5,0,6.3-2.9,6.3-6.4c0,0,0,0,0,0C32.6,12.1,29.8,9.2,26.2,9.1
			C26.3,9.1,26.3,9.1,26.2,9.1z"/>
		<path class="st0" d="M10.5,29.1c0,1-0.8,1.9-1.9,1.9c0,0-0.1,0-0.1,0c-1,0.1-1.9-0.7-2-1.8c0,0,0-0.1,0-0.1c0-1.1,1.7-4.1,2-4.1
			S10.5,28,10.5,29.1z"/>
		<path class="st0" d="M19.5,29.1c0,1-0.8,1.9-1.9,1.9c0,0-0.1,0-0.1,0c-1,0.1-1.9-0.7-2-1.8c0,0,0-0.1,0-0.1c0-1.1,1.7-4.1,2-4.1
			S19.5,28,19.5,29.1z"/>
		<path class="st0" d="M28.5,29.1c0,1-0.8,1.9-1.9,1.9c0,0-0.1,0-0.1,0c-1,0.1-1.9-0.7-2-1.8c0,0,0-0.1,0-0.1c0-1.1,1.7-4.1,2-4.1
			S28.5,28,28.5,29.1z"/>
	</g>
</g>
</svg>
