<?xml version="1.0" encoding="utf-8"?>
<!-- Generator: Adobe Illustrator 22.0.0, SVG Export Plug-In . SVG Version: 6.00 Build 0)  -->
<svg version="1.1" id="Layer_1" xmlns="http://www.w3.org/2000/svg" xmlns:xlink="http://www.w3.org/1999/xlink" x="0px" y="0px"
	 viewBox="0 0 512 512" style="enable-background:new 0 0 512 512;" xml:space="preserve">
<style type="text/css">
	.st0{fill:#EBEBEB;}
	.st1{fill:#FFFFFF;}
</style>
<g>
	<path class="st0" d="M289.3,217.2c-5.7,11.2-23.5,12.7-33.2,12.7c-9.8,0-27.5-1.6-33.2-12.7c10.8,2.6,22,4.1,33.2,4.1
		C267.3,221.3,278.5,219.9,289.3,217.2z"/>
	<path class="st0" d="M237.5,143.7c-6.7-2.5-13.7-3.9-20.9-4.2c-9.6-0.7-19.2,1.3-27.6,5.9c1-12.3,29.6-14.8,43.6-11.6
		c2.2,0.2,4.1,1.7,5.1,3.6C238.6,139.4,238.6,141.8,237.5,143.7z"/>
	<path class="st0" d="M234.8,165.5c0-8.4-6.3-15.1-14.1-15.1c-7.9,0-14.1,6.8-14.1,15.1s6.3,15.1,14.1,15.1
		C228.5,180.7,234.8,173.9,234.8,165.5z"/>
	<path class="st1" d="M224.7,152.4c-3.6-1.4-7.7,0.4-9.1,4.1c-1.4,3.6,0.4,7.7,4.1,9.1s7.7-0.4,9.1-4.1S228.3,153.8,224.7,152.4z"/>
	<path class="st0" d="M274.5,143.7c6.7-2.5,13.7-3.9,20.9-4.2c9.6-0.7,19.2,1.3,27.6,5.9c-1-12.3-29.6-14.8-43.6-11.6
		c-2.2,0.2-4.1,1.7-5.1,3.6C273.4,139.4,273.4,141.8,274.5,143.7z"/>
	<path class="st0" d="M305.4,165.5c0-8.4-6.3-15.1-14.1-15.1c-7.9,0-14.1,6.8-14.1,15.1s6.3,15.1,14.1,15.1
		C299.1,180.7,305.4,173.9,305.4,165.5z"/>
	<path class="st1" d="M296.4,156.5c-1.4-3.6-5.5-5.5-9.1-4.1c-3.6,1.4-5.5,5.5-4.1,9.1c1.4,3.6,5.5,5.5,9.1,4.1
		C296,164.2,297.9,160.1,296.4,156.5z"/>
	<path class="st0" d="M404.2,467.7H107.8c-2.1,0-4.1-0.9-5.4-2.5c-1.3-1.6-1.9-3.7-1.6-5.8l23.9-136.9c3-10.8,13.1-17.9,24.2-17.1
		h214.1c11.1-0.7,21.1,6.4,24.2,17l23.9,137.1c0.3,2.1-0.2,4.1-1.6,5.8C408.3,466.8,406.3,467.7,404.2,467.7z M116.2,453.6h279.6
		L373.4,325c-2-3.8-6-6-10.3-5.5H149c-4.3-0.5-8.4,1.7-10.3,5.6L116.2,453.6z"/>
	<path class="st0" d="M312.5,319.5h-113c-3.9,0-7-3.1-7-7v-35.3c0-3.9,3.1-7,7-7h112.9c3.9,0,7,3.1,7,7v35.3
		C319.5,316.4,316.4,319.5,312.5,319.5z M206.6,305.4h98.8v-21.2h-98.8V305.4z"/>
	<path class="st0" d="M312.5,284.2h-113c-31.2,0-56.4-25.3-56.5-56.5V129c0-31.2,25.3-56.4,56.5-56.5h112.9
		c31.2,0,56.4,25.3,56.5,56.5v98.8C368.9,259,343.7,284.2,312.5,284.2z M199.5,86.6c-23.4,0-42.3,18.9-42.3,42.3v98.8
		c0,23.4,18.9,42.3,42.3,42.3h112.9c23.4,0,42.3-18.9,42.3-42.3V129c0-23.4-18.9-42.3-42.3-42.3H199.5z"/>
	<path class="st0" d="M291.3,86.6h-70.6c-3.9,0-7-3.1-7-7V58.4c0-7.8,6.3-14.1,14.1-14.1h56.5c7.8,0,14.1,6.3,14.1,14.1v21.2
		C298.3,83.5,295.2,86.6,291.3,86.6z M227.8,72.5h56.5V58.4h-56.5L227.8,72.5L227.8,72.5z"/>
	<path class="st0" d="M129,467.7H51.3c-3.9,0-7-3.1-7-7v-6.3c0-9.5,1.2-18.9,3.4-28.1l6.5-47.4c0-0.2,0.1-0.5,0.2-0.7
		c8.3-31,36.7-52.3,68.7-51.5h6.6c3.9,0,7,3.1,7,7s-3.1,7-7,7h-6.6c-25.4-0.7-48.1,16-54.9,40.4l-6.5,47.4c0,0.2-0.1,0.5-0.2,0.7
		c-2,7.9-3,16.1-3.1,24.3H129c3.9,0,7,3.1,7,7C136,464.6,132.8,467.7,129,467.7z"/>
	<path class="st0" d="M460.7,467.7H383c-3.9,0-7-3.1-7-7s3.1-7,7-7h70.6c-0.1-8.2-1.1-16.4-3.1-24.3c-0.1-0.2-0.1-0.5-0.2-0.7
		l-6.5-47.4c-6.9-24.5-29.5-41.2-54.9-40.4h-6.5c-3.9,0-7-3.1-7-7c0-3.9,3.1-7,7-7h6.5c32.1-0.7,60.5,20.6,68.7,51.5
		c0.1,0.2,0.1,0.5,0.2,0.7l6.5,47.4c2.2,9.2,3.4,18.7,3.4,28.1v6.3c0,1.9-0.7,3.6-2.1,5S462.5,467.7,460.7,467.7z"/>
</g>
</svg>
