<svg xmlns="http://www.w3.org/2000/svg" viewBox="0 0 28 24"><defs><style>.cls-1{fill:#ebebeb;}</style></defs><title>khAsset 37</title><g id="Layer_2" data-name="Layer 2"><g id="Layer_1-2" data-name="Layer 1"><path class="cls-1" d="M14.08,24a84.38,84.38,0,0,0,8.26-5.42,14.36,14.36,0,0,0,5.38-8.14A10,10,0,0,0,27.15,4,7.29,7.29,0,0,0,17.69.6C16.4,1.15,14.43,2.31,14,4,13.57,2.31,11.6,1.15,10.31.6A7.29,7.29,0,0,0,.85,4a10,10,0,0,0-.57,6.48,14.36,14.36,0,0,0,5.38,8.14A84.38,84.38,0,0,0,13.92,24"/></g></g></svg>