<svg xmlns="http://www.w3.org/2000/svg" viewBox="0 0 29.4 39.26"><defs><style>.cls-1{fill:#ebebeb;}</style></defs><title>Asset 1</title><g id="Layer_2" data-name="Layer 2"><g id="Layer_1-2" data-name="Layer 1"><path class="cls-1" d="M19.36,7.3A3.65,3.65,0,1,0,15.7,3.65,3.66,3.66,0,0,0,19.36,7.3ZM12.78,32.68l1.83-8,3.83,3.65v11h3.65V25.56l-3.83-3.65,1.1-5.48A13.35,13.35,0,0,0,29.4,21V17.35A9,9,0,0,1,21.55,13L19.72,10a3.78,3.78,0,0,0-3.1-1.82c-.55,0-.92.18-1.46.18l-9.5,4V21H9.31V14.79l3.29-1.28L9.68,28.3.73,26.48,0,30.13Z"/></g></g></svg>