<?xml version="1.0" encoding="utf-8"?>
<!-- Generator: Adobe Illustrator 22.0.0, SVG Export Plug-In . SVG Version: 6.00 Build 0)  -->
<svg version="1.1" id="Layer_1" xmlns="http://www.w3.org/2000/svg" xmlns:xlink="http://www.w3.org/1999/xlink" x="0px" y="0px"
	 viewBox="0 0 35 35" style="enable-background:new 0 0 35 35;" xml:space="preserve">
<style type="text/css">
	.st0{fill:none;stroke:#EBEBEB;stroke-linecap:round;stroke-linejoin:round;stroke-miterlimit:10;}
</style>
<g>
	<path class="st0" d="M12.8,31.5c1.5-0.9,2.7-2.3,3.3-3.9c0.8-2.1,0.7-4.6-0.4-6.6c-0.5-1-1.3-2-1.3-3.2c0-1.3,1-2.5,2.3-2.8
		c1.7-0.4,3.5,0.6,4.4,2c0.9,1.5,1.1,3.4,0.8,5.1c-0.3,1.8-1,3.4-1.7,5c-0.8,1.8-1.5,3.5-2.3,5.3"/>
	<path class="st0" d="M10.3,28.7c0.5-0.7,1-1.4,1.3-2.1c0.5-1.1,0.7-2.3,0.5-3.4c-0.3-1.4-1.2-2.6-1.7-3.8c-1.3-3.1,0.4-6.4,3.2-7.7
		c3.3-1.5,8.1-0.9,10.5,2c2.1,2.5,1.9,6.3,1.4,9.3c-0.6,3.4-1.9,6.7-4,9.5"/>
	<path class="st0" d="M27.8,27.6c0.9-2.4,1.4-5,1.6-7.4c0.2-3.1,0-6.9-2-9.5C24.6,7,19.8,6.1,15.5,6.9c-2.6,0.5-5.2,1.8-7.2,3.6
		c-2,1.9-3.2,4.5-2.7,7.6c0.2,1.3,0.7,2.6,1.1,3.8c0.4,1.3,0.8,2.6,0.7,3.9"/>
	<path class="st0" d="M29.5,7.4c-3.4-4.5-9.2-5.6-14.4-4.6C12,3.5,8.8,4.9,6.5,7.2"/>
</g>
</svg>
