<svg xmlns="http://www.w3.org/2000/svg" viewBox="0 0 27 29"><defs><style>.cls-1{fill:none;stroke:#ebebeb;stroke-linecap:round;stroke-linejoin:round;}</style></defs><title>khAsset 35</title><g id="Layer_2" data-name="Layer 2"><g id="Layer_1-2" data-name="Layer 1"><path class="cls-1" d="M13.53,26a33.75,33.75,0,0,0,3.25-2.26,6.06,6.06,0,0,0,2.11-3.39,4.37,4.37,0,0,0-.23-2.7A2.79,2.79,0,0,0,15,16.25a2.48,2.48,0,0,0-1.45,1.41,2.48,2.48,0,0,0-1.45-1.41,2.79,2.79,0,0,0-3.71,1.4,4.37,4.37,0,0,0-.23,2.7,6.06,6.06,0,0,0,2.11,3.39A33.75,33.75,0,0,0,13.47,26"/><rect class="cls-1" x="0.5" y="6.5" width="26" height="6"/><polyline class="cls-1" points="24.5 12.5 24.5 28.5 2.5 28.5 2.5 12.5"/><path class="cls-1" d="M13,6.5A36.39,36.39,0,0,1,9.4,5.14a4.52,4.52,0,0,1-2-1.58,1.87,1.87,0,0,1,1.18-3A3.54,3.54,0,0,1,12.2,2.37a5.2,5.2,0,0,1,.66,2.25C12.88,4.87,12.68,6.4,13,6.5Z"/><path class="cls-1" d="M14,6.5a36.39,36.39,0,0,0,3.6-1.36,4.52,4.52,0,0,0,2-1.58,1.87,1.87,0,0,0-1.18-3A3.54,3.54,0,0,0,14.8,2.37a5.2,5.2,0,0,0-.66,2.25C14.12,4.87,14.32,6.4,14,6.5Z"/></g></g></svg>