<svg xmlns="http://www.w3.org/2000/svg" viewBox="0 0 29 25"><defs><style>.cls-1{fill:none;stroke:#ebebeb;stroke-linecap:round;stroke-linejoin:round;}</style></defs><title>khAsset 36</title><g id="Layer_2" data-name="Layer 2"><g id="Layer_1-2" data-name="Layer 1"><path class="cls-1" d="M14.58,24.5a84.38,84.38,0,0,0,8.26-5.42,14.36,14.36,0,0,0,5.38-8.14,10,10,0,0,0-.57-6.48A7.29,7.29,0,0,0,18.19,1.1c-1.29.55-3.26,1.71-3.69,3.38-.43-1.67-2.4-2.83-3.69-3.38A7.29,7.29,0,0,0,1.35,4.46a10,10,0,0,0-.57,6.48,14.36,14.36,0,0,0,5.38,8.14,84.38,84.38,0,0,0,8.26,5.42"/></g></g></svg>