<?xml version="1.0" encoding="utf-8"?>
<!-- Generator: Adobe Illustrator 22.0.0, SVG Export Plug-In . SVG Version: 6.00 Build 0)  -->
<svg version="1.1" id="圖層_1" xmlns="http://www.w3.org/2000/svg" xmlns:xlink="http://www.w3.org/1999/xlink" x="0px" y="0px"
	 viewBox="0 0 100 100" style="enable-background:new 0 0 100 100;" xml:space="preserve">
<style type="text/css">
	.st0{opacity:0.5;fill:#EBEBEB;}
	.st1{opacity:0.6;fill:#EBEBEB;}
	.st2{fill:#EBEBEB;}
</style>
<path class="st0" d="M63.8,40.4c-8.6-8.6-19.2-11.9-23.7-7.4c-0.9,0.9-1.5,2.2-1.8,3.6L16.1,80.3c-1.4,1.4-0.9,4.4,1.3,6.5
	s5.1,2.7,6.5,1.3l43.8-22.2c1.4-0.3,2.6-0.9,3.6-1.8C75.8,59.6,72.4,49,63.8,40.4z"/>
<path class="st1" d="M64,40.2c-8.8-8.8-19.7-12.2-24.3-7.6c-1,1-1.6,2.2-1.8,3.6c-1.1,5.4,2.5,13.7,9.5,20.7S62.6,67.4,68,66.3
	c1.4-0.3,2.7-0.9,3.6-1.8C76.2,59.9,72.8,49,64,40.2z"/>
<circle class="st2" cx="67.1" cy="27.8" r="3.7"/>
<circle class="st2" cx="81.9" cy="19.1" r="5.4"/>
<circle class="st2" cx="13.7" cy="46.6" r="4.3"/>
<circle class="st2" cx="87.3" cy="66.3" r="3.2"/>
<g>
	<path class="st2" d="M50,41.6c-0.8,0-1.4-0.6-1.4-1.4c0-0.3,0.1-0.5,0.2-0.7c6.4-10.6,6.8-20.4,1.4-30c-0.4-0.7-0.1-1.5,0.5-1.9
		c0.7-0.4,1.5-0.1,1.9,0.5c5.9,10.3,5.4,21.4-1.4,32.7C50.9,41.4,50.5,41.6,50,41.6z"/>
</g>
<g>
	<path class="st2" d="M60.7,56.9c-0.8,0-1.4-0.6-1.4-1.4c0-0.2,0-0.4,0.1-0.6C65.5,42.4,77.4,36.8,89,41c0.7,0.3,1.1,1.1,0.8,1.8
		s-1.1,1.1-1.8,0.8c-10.3-3.8-20.6,1.2-26,12.5C61.8,56.6,61.3,56.9,60.7,56.9z"/>
</g>
<g>
	<path class="st2" d="M30.6,37.7c-0.8,0-1.4-0.6-1.4-1.4c0-0.2,0-0.3,0.1-0.4c2.6-7.7,1.5-15.2-3.5-22.8c-0.4-0.6-0.2-1.5,0.4-1.9
		c0.6-0.4,1.5-0.2,1.9,0.4c5.4,8.2,6.7,16.7,3.8,25.2C31.8,37.3,31.2,37.7,30.6,37.7z"/>
</g>
<g>
	<path class="st2" d="M76.1,89.7c-0.7,0-1.4-0.1-2-0.3c-2.5-0.9-4.4-3.5-5.6-7.8c-0.8-3.2-2-5.1-3.6-5.8c-1.7-0.7-4.2-0.1-7.4,1.7
		c-5,2.9-8.9,3.5-12,2.1c-3.1-1.4-5.1-4.8-6.2-10.3c-0.1-0.8,0.4-1.5,1.1-1.6c0.7-0.1,1.4,0.4,1.6,1.1c0.9,4.5,2.4,7.3,4.6,8.3
		c2.2,1,5.4,0.3,9.5-2c4-2.4,7.2-3,9.8-1.9c2.5,1,4.2,3.6,5.2,7.7c1,3.3,2.3,5.3,3.9,5.9c1.4,0.5,3.4-0.1,5.7-1.7
		c0.6-0.4,1.5-0.3,1.9,0.3c0.4,0.6,0.3,1.5-0.3,1.9C80,88.9,77.9,89.7,76.1,89.7z"/>
</g>
<circle class="st2" cx="55.5" cy="89.6" r="2.9"/>
<path class="st2" d="M38,15.1l1.2,7.1l6.9,2.3l-2.3-7.4L38,15.1z"/>
<path class="st2" d="M81.9,50.8l-2,4.7l2,3.1l5.4-3.9L81.9,50.8z"/>
</svg>
