<svg xmlns="http://www.w3.org/2000/svg" viewBox="0 0 29 31"><defs><style>.cls-1{fill:none;stroke:#ebebeb;stroke-linecap:round;stroke-linejoin:round;}</style></defs><title>Asset 23</title><g id="Layer_2" data-name="Layer 2"><g id="Layer_1-2" data-name="Layer 1"><polygon class="cls-1" points="25.5 30.5 3.5 30.5 3.5 8.5 0.5 8.5 0.5 0.5 4.5 0.5 4.5 4.5 8.5 4.5 8.5 0.5 12.5 0.5 12.5 4.5 16.5 4.5 16.5 0.5 20.5 0.5 20.5 4.5 24.5 4.5 24.5 0.5 28.5 0.5 28.5 8.5 25.5 8.5 25.5 30.5"/><path class="cls-1" d="M11,21.94V16a3.32,3.32,0,0,1,3.5-3.07h0A3.32,3.32,0,0,1,18,16v5.94Z"/></g></g></svg>