<svg xmlns="http://www.w3.org/2000/svg" viewBox="0 0 25 29"><defs><style>.cls-1,.cls-2{fill:none;stroke:#ebebeb;stroke-linecap:round;}.cls-1{stroke-miterlimit:10;}.cls-2{stroke-linejoin:round;}</style></defs><title>Asset 15</title><g id="Layer_2" data-name="Layer 2"><g id="Layer_1-2" data-name="Layer 1"><path class="cls-1" d="M12.5,11.5v14a3,3,0,0,1-3,3h0a3,3,0,0,1-3-3v-.17"/><path class="cls-2" d="M24.5,12.5c0-1.1-1.34-2-3-2s-3,.9-3,2c0-1.1-1.34-2-3-2s-3,.9-3,2c0-1.1-1.34-2-3-2s-3,.9-3,2c0-1.1-1.34-2-3-2s-3,.9-3,2a12,12,0,0,1,24,0Z"/></g></g></svg>