<svg xmlns="http://www.w3.org/2000/svg" viewBox="0 0 31 28"><defs><style>.cls-1{fill:none;stroke:#ebebeb;stroke-linejoin:round;}</style></defs><title>Asset 16</title><g id="Layer_2" data-name="Layer 2"><g id="Layer_1-2" data-name="Layer 1"><path class="cls-1" d="M24.25,5.64a5.9,5.9,0,0,0-1.4.17,8.73,8.73,0,0,0-8-5.31A8.82,8.82,0,0,0,6.22,8.27a5.83,5.83,0,0,0-.72-.06,5.08,5.08,0,0,0-5,5.15,5.07,5.07,0,0,0,5,5.14H24.25a6.34,6.34,0,0,0,6.25-6.43A6.34,6.34,0,0,0,24.25,5.64Z"/><path class="cls-1" d="M8.5,25.62a1.88,1.88,0,0,1-2,1.88,1.88,1.88,0,0,1-2-1.88c0-1.13,1.67-4.12,2-4.12S8.5,24.49,8.5,25.62Z"/><path class="cls-1" d="M17.5,25.62a1.88,1.88,0,0,1-2,1.88,1.88,1.88,0,0,1-2-1.88c0-1.13,1.67-4.12,2-4.12S17.5,24.49,17.5,25.62Z"/><path class="cls-1" d="M26.5,25.62a1.88,1.88,0,0,1-2,1.88,1.88,1.88,0,0,1-2-1.88c0-1.13,1.67-4.12,2-4.12S26.5,24.49,26.5,25.62Z"/></g></g></svg>