<svg xmlns="http://www.w3.org/2000/svg" viewBox="0 0 31 31"><defs><style>.cls-1{fill:none;stroke:#ebebeb;stroke-linecap:round;stroke-linejoin:round;}</style></defs><title>Asset 10</title><g id="Layer_2" data-name="Layer 2"><g id="Layer_1-2" data-name="Layer 1"><path class="cls-1" d="M22.11,4A6,6,0,1,1,24.5,15.5v15H6.5v-14a6,6,0,0,1,0-12,5.91,5.91,0,0,1,1.9.31A8,8,0,0,1,22.11,4Z"/><line class="cls-1" x1="6.65" y1="26" x2="24.35" y2="26"/><path class="cls-1" d="M11.92,23A8,8,0,0,0,11,18"/><path class="cls-1" d="M19.05,23A27.37,27.37,0,0,1,20,14"/><path class="cls-1" d="M15.9,23A29,29,0,0,0,15,13.15"/></g></g></svg>