<?xml version="1.0" encoding="utf-8"?>
<!-- Generator: Adobe Illustrator 22.0.1, SVG Export Plug-In . SVG Version: 6.00 Build 0)  -->
<svg version="1.1" id="Layer_1" xmlns="http://www.w3.org/2000/svg" xmlns:xlink="http://www.w3.org/1999/xlink" x="0px" y="0px"
	 viewBox="0 0 35 35" style="enable-background:new 0 0 35 35;" xml:space="preserve">
<style type="text/css">
	.st0{fill:#EBEBEB;}
</style>
<title>Artboard 1</title>
<g>
	<path class="st0" d="M23.3,30.5h-5.4c-0.3,0-0.5-0.2-0.5-0.5v-9.7c0-0.3,0.2-0.5,0.5-0.5h2.9l0.7-2.2h-3.6c-0.3,0-0.5-0.2-0.5-0.5
		v-3.2c0-1.5,1.2-2.7,2.7-2.7h1.6V8.8h-1.6c-2.7,0-4.9,2.2-4.9,4.9V17c0,0.3-0.2,0.5-0.5,0.5H12v2.2h2.7c0.3,0,0.5,0.2,0.5,0.5V30
		c0,0.3-0.2,0.5-0.5,0.5h-12c-1.5,0-2.7-1.2-2.7-2.7V7.2c0-1.5,1.2-2.7,2.7-2.7h20.6c1.5,0,2.7,1.2,2.7,2.7v20.6
		C26,29.3,24.8,30.5,23.3,30.5z M18.4,29.4h4.9c0.9,0,1.6-0.7,1.6-1.6V7.2c0-0.9-0.7-1.6-1.6-1.6H2.7c-0.9,0-1.6,0.7-1.6,1.6v20.6
		c0,0.9,0.7,1.6,1.6,1.6h11.4v-8.7h-2.7c-0.3,0-0.5-0.2-0.5-0.5V17c0-0.3,0.2-0.5,0.5-0.5h2.7v-2.7c0-3.3,2.7-6,6-6h2.2
		c0.3,0,0.5,0.2,0.5,0.5v3.2c0,0.3-0.2,0.5-0.5,0.5h-2.2c-0.9,0-1.6,0.7-1.6,1.6v2.7h3.8c0.2,0,0.3,0.1,0.4,0.2s0.1,0.3,0.1,0.5
		l-1.1,3.2c-0.1,0.2-0.3,0.4-0.5,0.4h-2.7L18.4,29.4L18.4,29.4z"/>
</g>
</svg>
