<?xml version="1.0" encoding="utf-8"?>
<!-- Generator: Adobe Illustrator 22.0.1, SVG Export Plug-In . SVG Version: 6.00 Build 0)  -->
<svg version="1.1" id="Layer_1" xmlns="http://www.w3.org/2000/svg" xmlns:xlink="http://www.w3.org/1999/xlink" x="0px" y="0px"
	 viewBox="0 0 119 26" style="enable-background:new 0 0 119 26;" xml:space="preserve">
<style type="text/css">
	.st0{fill:#EBEBEB;}
</style>
<path class="st0" d="M113,26H6c-3.3,0-6-2.7-6-6V6c0-3.3,2.7-6,6-6h107c3.3,0,6,2.7,6,6v14C119,23.3,116.3,26,113,26z M11.1,8.9H8.6
	v7.2h1.3v-2.6h1.2c1.5,0,2.5-0.9,2.5-2.3S12.6,8.9,11.1,8.9z M17,10.7c-1.6,0-2.7,1.1-2.7,2.8c0,1.6,1.1,2.8,2.7,2.8
	c1.6,0,2.7-1.1,2.7-2.8C19.7,11.9,18.6,10.7,17,10.7z M26.9,10.9l-1.1,3.6l-1.1-3.6h-1.2l-1.1,3.6l-1.1-3.6h-1.3l1.8,5.3h1.2
	l1.1-3.6l1.1,3.6h1.2l1.8-5.3H26.9z M31.3,10.7c-1.5,0-2.6,1.1-2.6,2.7c0,1.6,1.1,2.8,2.7,2.8c0.6,0,1.2-0.1,1.8-0.4v-1.1
	c-0.5,0.3-1.1,0.5-1.6,0.5c-0.9,0-1.5-0.5-1.6-1.3h3.6c0-0.2,0-0.3,0-0.5C33.6,11.8,32.6,10.7,31.3,10.7z M37.7,10.8
	c-0.1,0-0.3-0.1-0.4-0.1c-0.5,0-0.9,0.2-1.3,0.7v-0.5h-1.3v5.3H36v-3.5c0.3-0.4,0.8-0.7,1.3-0.7c0.2,0,0.3,0,0.5,0.1V10.8z
	 M40.8,10.7c-1.5,0-2.6,1.1-2.6,2.7c0,1.6,1.1,2.8,2.7,2.8c0.6,0,1.2-0.1,1.8-0.4v-1.1c-0.5,0.3-1.1,0.5-1.6,0.5
	c-0.9,0-1.5-0.5-1.6-1.3h3.6c0-0.2,0-0.3,0-0.5C43.1,11.8,42.2,10.7,40.8,10.7z M48.9,8.6h-1.4v2.7c-0.4-0.3-0.9-0.5-1.3-0.5
	c-1.4,0-2.4,1.1-2.4,2.8c0,1.6,1,2.8,2.4,2.8c0.5,0,0.9-0.2,1.3-0.5v0.4h1.4V8.6z M55.7,10.7c-0.5,0-0.9,0.2-1.3,0.5V8.6H53v7.6h1.3
	v-0.4c0.4,0.3,0.9,0.5,1.3,0.5c1.4,0,2.4-1.1,2.4-2.8C58.1,11.9,57.1,10.7,55.7,10.7z M62.3,10.9L61,14.3l-1.3-3.5h-1.4l2,5.1
	l-1,2.5h1.3l3-7.6H62.3z M73.1,10.3c0.9,0,2,0.3,2.8,0.7V8.3C75,8,74.1,7.8,73.1,7.8c-2.3,0-3.8,1.2-3.8,3.2c0,3.1,4.3,2.6,4.3,4
	c0,0.5-0.5,0.7-1.1,0.7c-0.9,0-2.2-0.4-3.1-0.9v2.7c1.1,0.5,2.1,0.6,3.1,0.6c2.4,0,4-1.2,4-3.2c0-3.4-4.3-2.8-4.3-4.1
	C72.1,10.5,72.5,10.3,73.1,10.3z M82.2,8H80l0-2.5l-2.8,0.6l0,9.1c0,1.7,1.3,2.9,2.9,2.9c0.9,0,1.6-0.2,2-0.4v-2.3
	c-0.4,0.1-2.2,0.7-2.2-1v-4h2.2V8z M88.3,8c-0.4-0.1-1.7-0.4-2.4,0.8L85.7,8h-2.5v10h2.8v-6.7c0.7-0.9,1.8-0.7,2.2-0.6V8z M92,4.2
	l-2.8,0.6v2.3L92,6.5V4.2z M92,8h-2.8v10H92V8z M98.1,7.8c-1.1,0-1.8,0.5-2.2,0.9L95.8,8h-2.5l0,13.3l2.8-0.6l0-3.2
	c0.4,0.3,1,0.7,2,0.7c2,0,3.9-1.6,3.9-5.2C102,9.6,100.1,7.8,98.1,7.8z M107,7.8c-2.7,0-4.3,2.3-4.3,5.2c0,3.4,1.9,5.2,4.7,5.2
	c1.4,0,2.4-0.3,3.1-0.7v-2.3c-0.8,0.4-1.7,0.6-2.8,0.6c-1.1,0-2.1-0.4-2.2-1.7h5.6c0-0.2,0-0.7,0-1C111.2,10.1,109.7,7.8,107,7.8z
	 M107,10.1c0.7,0,1.4,0.5,1.4,1.8h-2.9C105.5,10.7,106.3,10.1,107,10.1z M97.4,15.7c-0.7,0-1.1-0.2-1.3-0.5l0-4.2
	c0.3-0.3,0.7-0.6,1.4-0.6c1,0,1.8,1.2,1.8,2.6C99.2,14.5,98.5,15.7,97.4,15.7z M55.4,15.1c-0.4,0-0.7-0.2-1.1-0.5v-2.3
	c0.3-0.3,0.7-0.5,1.1-0.5c0.8,0,1.3,0.7,1.3,1.6C56.7,14.4,56.2,15.1,55.4,15.1z M46.5,15.1c-0.8,0-1.3-0.7-1.3-1.6
	c0-0.9,0.5-1.6,1.3-1.6c0.4,0,0.7,0.2,1,0.5v2.3C47.2,14.9,46.9,15.1,46.5,15.1z M40.8,11.8c0.6,0,1,0.5,1.1,1.2h-2.3
	C39.6,12.3,40.1,11.8,40.8,11.8z M31.2,11.8c0.6,0,1,0.5,1.1,1.2H30C30,12.3,30.5,11.8,31.2,11.8z M17,15.1c-0.8,0-1.3-0.7-1.3-1.6
	s0.5-1.6,1.3-1.6c0.8,0,1.3,0.7,1.3,1.6S17.8,15.1,17,15.1z M10.9,12.4h-1V10h1c0.8,0,1.3,0.5,1.3,1.2
	C12.3,11.9,11.7,12.4,10.9,12.4z"/>
</svg>
